<?xml version="1.0" encoding="utf-8"?>
<!-- Generator: Adobe Illustrator 26.1.0, SVG Export Plug-In . SVG Version: 6.00 Build 0)  -->
<svg version="1.1" id="Livello_1" xmlns="http://www.w3.org/2000/svg" xmlns:xlink="http://www.w3.org/1999/xlink" x="0px" y="0px"
	 viewBox="0 0 182 179.8" style="enable-background:new 0 0 182 179.8;" xml:space="preserve">
<style type="text/css">
	.st0{fill:#FF8200;}
</style>
<path class="st0" d="M146.8,60.2h-35.4l11.1-4.3c8.2-3.2,12.2-12.4,9-20.5c-2.1-5.4-6.9-9.2-12.6-10l-2-0.3c-7.1-1-14,3-16.8,9.6
	L91,56.4l-9.1-21.7c-2.8-6.6-9.7-10.6-16.8-9.6l-2,0.3c-8.7,1.2-14.8,9.2-13.6,17.9c0.8,5.7,4.6,10.5,10,12.6l11.1,4.3H35.2
	c-3.8,0-7,3.1-7,7v20.3c0,3.8,3.1,7,7,7h1.3v49.7c0,5.9,4.8,10.7,10.7,10.7h87.5c5.9,0,10.7-4.8,10.7-10.7V94.4h1.3c3.8,0,7-3.1,7-7
	V67.2C153.7,63.3,150.6,60.2,146.8,60.2z M105.6,37c1.7-4.1,6-6.6,10.4-6l2,0.3c5.4,0.7,9.2,5.7,8.4,11.1c-0.5,3.5-2.9,6.5-6.2,7.8
	l-24.1,9.4L105.6,37z M55.5,42.2c-0.6-5.3,3.2-10.2,8.5-10.9l2-0.3c4.4-0.6,8.7,1.8,10.4,6l9.5,22.7l-24.1-9.4
	C58.3,49,55.9,45.9,55.5,42.2z M35.2,88.4c-0.5,0-1-0.4-1-1V67.2c0-0.5,0.4-1,1-1H88v22.2H36.5v0H35.2z M42.5,144.1V94.4H88v54.4
	H47.3C44.6,148.8,42.5,146.7,42.5,144.1z M139.5,144.1c0,2.6-2.1,4.7-4.7,4.7H94V94.4h45.5V144.1z M147.7,87.4c0,0.5-0.4,1-1,1h-1.3
	v0H94V66.2h52.8c0.5,0,1,0.4,1,1V87.4z"/>
</svg>
