<svg width="113" height="113" viewBox="0 0 113 113" fill="none" xmlns="http://www.w3.org/2000/svg">
<path d="M43.0848 63.6661L47.0214 70.8011C47.1444 71.0474 47.2673 71.1703 47.5136 71.2931L54.6486 75.2298C55.6331 75.7218 55.6331 77.0755 54.6486 77.5675L47.5136 81.5041C47.2673 81.627 47.1444 81.7499 47.0214 81.9961L43.0848 89.1311C42.5927 90.1152 41.2395 90.1152 40.7474 89.1311L36.8107 81.9961C36.6877 81.7499 36.5647 81.627 36.3186 81.5041L29.1834 77.5675C28.1993 77.0755 28.1993 75.7218 29.1834 75.2298L36.3186 71.2931C36.5647 71.1703 36.6877 71.0474 36.8107 70.8011L40.7474 63.6661C41.2395 62.6816 42.5927 62.6816 43.0848 63.6661Z" fill="#5D53C4"/>
<path d="M70.6414 90.7306L73.2249 95.5284C73.3483 95.6513 73.4711 95.7741 73.594 95.8975L78.3918 98.481C79.0072 98.8501 79.0072 99.7108 78.3918 100.08L73.594 102.663C73.4711 102.787 73.3483 102.91 73.2249 103.033L70.6414 107.83C70.2723 108.446 69.4116 108.446 69.0425 107.83L66.459 103.033C66.3357 102.91 66.2128 102.787 66.0899 102.663L61.2921 100.08C60.6767 99.7108 60.6767 98.8501 61.2921 98.481L66.0899 95.8975C66.2128 95.7741 66.3357 95.6513 66.459 95.5284L69.0425 90.7306C69.4116 90.1152 70.2723 90.1152 70.6414 90.7306Z" fill="#5D53C4"/>
<path d="M61.6612 6.09222L69.5345 20.3626C69.7802 20.8547 70.1494 21.2238 70.6414 21.4698L84.9119 29.3431C86.7571 30.3273 86.7571 33.0338 84.9119 34.0179L70.5185 41.7682C70.0265 42.0143 69.6573 42.3833 69.4111 42.8754L61.5378 57.1459C60.5538 58.9911 57.8474 58.9911 56.8629 57.1459L48.9896 42.8754C48.7439 42.3833 48.3747 42.0143 47.8827 41.7682L33.6123 33.8949C31.7669 32.9107 31.7669 30.2043 33.6123 29.2201L47.8827 21.3468C48.3747 21.1007 48.7439 20.7317 48.9896 20.2396L56.9863 6.09222C57.9703 4.24693 60.6767 4.24693 61.6612 6.09222Z" fill="#5D53C4"/>
</svg>
