<?xml version="1.0" encoding="utf-8"?>
<!-- Generator: Adobe Illustrator 26.1.0, SVG Export Plug-In . SVG Version: 6.00 Build 0)  -->
<svg version="1.1" id="Livello_1" xmlns="http://www.w3.org/2000/svg" xmlns:xlink="http://www.w3.org/1999/xlink" x="0px" y="0px"
	 viewBox="0 0 182 179.8" style="enable-background:new 0 0 182 179.8;" xml:space="preserve">
<style type="text/css">
	.st0{fill:#FFC21A;}
</style>
<path class="st0" d="M163.4,50.7h-16V29c0-1.7-1.3-3-3-3c-0.2,0-0.4,0-0.6,0.1C109.2,32.6,96,41,91.1,47c-5-6-18.1-14.4-52.7-20.9
	c-1.6-0.3-3.2,0.8-3.5,2.4c0,0.2-0.1,0.4-0.1,0.6v21.7H18.7c-1.7,0-3,1.3-3,3c0,0,0,0,0,0v80.4c0,1.7,1.3,3,3,3c0.1,0,0.2,0,0.3,0
	c0.5-0.1,48.4-5,69.9,15.8l0,0l0,0c0.2,0.2,0.4,0.3,0.6,0.4c0.1,0,0.1,0.1,0.2,0.1c0.2,0.1,0.3,0.1,0.5,0.2c0.1,0,0.1,0,0.2,0.1
	c0.2,0.1,0.5,0.1,0.7,0.1c0,0,0.1,0,0.1,0c0,0,0.1,0,0.1,0c0.1,0,0.1,0,0.2,0c0,0,0.1,0,0.1,0c0.9-0.1,1.7-0.6,2.2-1.4
	c22.3-20.5,68.8-15.3,69.3-15.3c1.6,0.2,3.1-1,3.3-2.6c0-0.1,0-0.2,0-0.3V53.7C166.4,52,165,50.7,163.4,50.7
	C163.4,50.7,163.4,50.7,163.4,50.7z M94.2,53.7C94.2,53.7,94.2,53.6,94.2,53.7C94.2,53.6,94.2,53.7,94.2,53.7L94.2,53.7z M94.2,53.7
	c0.1-0.6,2.5-12.1,47.2-21.1v82.5c-8,0.9-30.6,5.3-47.2,26V53.7z M88,53.7L88,53.7C88,53.7,88,53.6,88,53.7C88,53.6,88,53.7,88,53.7
	L88,53.7z M40.8,32.7C85.5,41.6,87.9,53.1,88,53.7v87.4c-16.6-20.7-39.2-25.1-47.2-26V32.7z M21.7,130.8V56.7h13.2v61.2
	c0,1.6,1.3,2.9,2.9,3c14.7,1.3,28.5,7.4,39.4,17.4C56.6,129.4,30.8,130.2,21.7,130.8z M160.4,130.8c-9.1-0.7-34.5-1.6-55.1,7.3
	c10.9-9.8,24.6-15.9,39.2-17.2c1.6,0,2.9-1.4,2.9-3V56.7h13L160.4,130.8z"/>
</svg>
