<?xml version="1.0" encoding="utf-8"?>
<!-- Generator: Adobe Illustrator 26.1.0, SVG Export Plug-In . SVG Version: 6.00 Build 0)  -->
<svg version="1.1" id="Livello_1" xmlns="http://www.w3.org/2000/svg" xmlns:xlink="http://www.w3.org/1999/xlink" x="0px" y="0px"
	 viewBox="0 0 182 179.8" style="enable-background:new 0 0 182 179.8;" xml:space="preserve">
<style type="text/css">
	.st0{fill:#5E53C4;}
</style>
<path class="st0" d="M116.3,26.2H76.9C52.6,26.3,33,45.9,32.9,70.2v39.4c0,7.1,1.7,14.1,5.1,20.4c-6.4-2.2-12.2-5.6-16.3-10.8
	c0,0,7.8,23.6,41.7,32.6c3.9,1.2,8,1.7,12.1,1.7c0.4,0,0.9,0.1,1.3,0.1h39.4c24.2-0.1,43.9-19.7,43.9-43.9V70.2
	C160.2,45.9,140.6,26.3,116.3,26.2z M90.6,68.6c0,1.1-0.9,2-2,2c0,0,0,0,0,0h-7.7c-1.1,0-2,0.9-2,2v48.1c0,1.1-0.9,2-2,2
	c0,0,0,0,0,0H61.2c-1.1,0-2-0.9-2-2c0,0,0,0,0,0V72.6c0-1.1-0.9-2-2-2h-7.6c-1.1,0-2-0.9-2-2c0,0,0,0,0,0v-9c0-1.1,0.9-2,2-2h39
	c1.1,0,2,0.9,2,2v0L90.6,68.6z M137.3,120.5c-0.2,1.3-1.3,2.2-2.6,2.2h-25.4c-1.3,0-2.4-0.9-2.6-2.2L96.3,60.7
	c-0.3-1.4,0.7-2.8,2.1-3c0.1,0,0.3,0,0.5,0l15.3,0c1.3,0,2.4,1,2.6,2.3c0.4,3.4,0.9,6.6,1.3,9.8c0,0.3,0.1,0.6,0.2,0.9
	c0.8,9.1,1.5,17.5,2.1,25.4c0,0.6,0.6,1.1,1.2,1c0.5,0,1-0.5,1-1l2.1-25.7c0.1-0.2,0.1-0.5,0.1-0.7l1.1-9.8c0.2-1.3,1.3-2.3,2.6-2.3
	h15.3c1.5,0,2.6,1.2,2.6,2.6c0,0.1,0,0.3,0,0.4L137.3,120.5z"/>
</svg>
