<?xml version="1.0" encoding="utf-8"?>
<!-- Generator: Adobe Illustrator 26.1.0, SVG Export Plug-In . SVG Version: 6.00 Build 0)  -->
<svg version="1.1" id="Livello_1" xmlns="http://www.w3.org/2000/svg" xmlns:xlink="http://www.w3.org/1999/xlink" x="0px" y="0px"
	 viewBox="0 0 182 179.8" style="enable-background:new 0 0 182 179.8;" xml:space="preserve">
<style type="text/css">
	.st0{fill:#2A85E8;}
</style>
<path class="st0" d="M35.9,64.7l13.7,13.2c2.4-8.7,7.6-16.3,14.8-21.8c7.5-6,16.9-9.3,26.6-9.2c11.4-0.2,22.5,4.3,30.5,12.5
	c8.3,8,12.8,19.1,12.6,30.5H126l20.9,20.3l21-20.3l-7.6,0c0-19.2-6.7-35.5-20.2-49.1c-13.5-13.6-29.8-20.3-49-20.3
	c-16.3-0.2-32.1,5.6-44.5,16.2c-11.9,9.8-20.1,23.3-23.2,38.4l10.5-10.4C34.3,64.1,35.3,64.1,35.9,64.7z"/>
<path class="st0" d="M146.9,116.4c-0.4,0-0.8-0.2-1.1-0.4l-13.7-13.2c-5.7,17.9-22.3,30.1-41.1,30.1c-11.4,0.2-22.5-4.3-30.5-12.5
	c-8.2-7.9-12.8-18.9-12.6-30.4H56L35.1,69.7L14.1,90l7.6,0c0,19,6.8,35.3,20.3,48.9c13.5,13.5,29.8,20.3,49,20.3
	c16.3,0.2,32.1-5.6,44.5-16.2c11.7-9.6,19.8-22.9,23.1-37.7L148,115.9C147.7,116.2,147.3,116.4,146.9,116.4z"/>
</svg>
