<?xml version="1.0" encoding="utf-8"?>
<!-- Generator: Adobe Illustrator 26.1.0, SVG Export Plug-In . SVG Version: 6.00 Build 0)  -->
<svg version="1.1" id="Livello_1" xmlns="http://www.w3.org/2000/svg" xmlns:xlink="http://www.w3.org/1999/xlink" x="0px" y="0px"
	 viewBox="0 0 182 179.8" style="enable-background:new 0 0 182 179.8;" xml:space="preserve">
<style type="text/css">
	.st0{fill:#107C10;}
</style>
<path class="st0" d="M91.8,75.4c0.1,0,0.2,0.1,0.2,0.1c20.8,15.8,56.4,55,45.6,66c-26.2,22.9-65.4,22.9-91.6,0
	c-10.9-11.1,24.8-50.2,45.6-66C91.7,75.4,91.7,75.4,91.8,75.4z"/>
<path class="st0" d="M128.1,29.8c-22.3-13.6-50.2-13.6-72.5,0c-0.1,0.1-0.2,0.2-0.1,0.3c0.1,0.1,0.2,0.2,0.3,0.1
	c13.5-2.9,33.9,8.7,35.9,9.9c0.1,0.1,0.2,0.1,0.3,0c1.9-1.2,22.4-12.8,35.9-9.9c0.1,0,0.3,0,0.3-0.1C128.2,30,128.2,29.8,128.1,29.8
	z"/>
<path class="st0" d="M43.1,39.5c-0.1,0.1-0.2,0.1-0.3,0.2c-24.8,24.6-27.5,63.7-6.3,91.5c0.1,0.1,0.2,0.2,0.4,0.1
	c0.1-0.1,0.1-0.2,0.1-0.4c-5.3-16.4,21.8-56.1,35.8-72.8c0.1-0.1,0.1-0.1,0.1-0.2c0-0.1,0-0.2-0.1-0.2
	C51.5,36.7,44.3,38.9,43.1,39.5z"/>
<path class="st0" d="M110.9,57.8c-0.1,0.1-0.1,0.1-0.1,0.2c0,0.1,0,0.1,0.1,0.2c14,16.7,41.1,56.4,35.8,72.8c-0.1,0.1,0,0.3,0.1,0.4
	c0.1,0.1,0.3,0,0.4-0.1c21.2-27.8,18.4-66.9-6.3-91.5c-0.1-0.1-0.2-0.2-0.3-0.2C139.3,38.9,132.1,36.7,110.9,57.8z"/>
</svg>
